<mxfile host="app.diagrams.net" modified="2022-03-08T08:32:06.757Z" agent="5.0 (Windows NT 10.0; Win64; x64) AppleWebKit/537.36 (KHTML, like Gecko) Chrome/99.0.4844.51 Safari/537.36" etag="4wGjd7E52wQxa2Crl7Bp" version="16.6.7" type="github" pages="2">
  <diagram id="-Oy9sqPuOL5hVd8pnkek" name="Page-1">
    <mxGraphModel dx="950" dy="587" grid="1" gridSize="10" guides="1" tooltips="1" connect="1" arrows="1" fold="1" page="1" pageScale="1" pageWidth="827" pageHeight="1169" math="0" shadow="0">
      <root>
        <mxCell id="0" />
        <mxCell id="1" parent="0" />
        <mxCell id="jOYMLB-blxX8LQj1TIm6-1" value="" style="rounded=0;whiteSpace=wrap;html=1;" vertex="1" parent="1">
          <mxGeometry x="290" y="220" width="120" height="60" as="geometry" />
        </mxCell>
        <mxCell id="jOYMLB-blxX8LQj1TIm6-2" value="" style="whiteSpace=wrap;html=1;" vertex="1" parent="1">
          <mxGeometry x="270" y="290" width="120" height="60" as="geometry" />
        </mxCell>
      </root>
    </mxGraphModel>
  </diagram>
  <diagram id="7DOTYBG8pqvv3I9p9x1p" name="Page-2">
    <mxGraphModel dx="950" dy="587" grid="1" gridSize="10" guides="1" tooltips="1" connect="1" arrows="1" fold="1" page="1" pageScale="1" pageWidth="827" pageHeight="1169" math="0" shadow="0">
      <root>
        <mxCell id="yt72XjaO449H2X1Mdo4S-0" />
        <mxCell id="yt72XjaO449H2X1Mdo4S-1" parent="yt72XjaO449H2X1Mdo4S-0" />
        <mxCell id="yt72XjaO449H2X1Mdo4S-2" value="" style="shape=callout;whiteSpace=wrap;html=1;perimeter=calloutPerimeter;" vertex="1" parent="yt72XjaO449H2X1Mdo4S-1">
          <mxGeometry x="350" y="260" width="120" height="80" as="geometry" />
        </mxCell>
        <mxCell id="yt72XjaO449H2X1Mdo4S-3" value="" style="shape=flexArrow;endArrow=classic;html=1;rounded=0;width=383;endSize=31.86;" edge="1" parent="yt72XjaO449H2X1Mdo4S-1">
          <mxGeometry width="50" height="50" relative="1" as="geometry">
            <mxPoint x="270" y="410" as="sourcePoint" />
            <mxPoint x="320" y="360" as="targetPoint" />
          </mxGeometry>
        </mxCell>
      </root>
    </mxGraphModel>
  </diagram>
</mxfile>
